# File created by Blade
# Date/Time:  Wed Apr 08 17:39:35 2015
# Frame Rate: 120.000 fps
#------------------------------------------------------
:FULLY-SPECIFIED
:DEGREES
2746
root 10.629488 37.404640 3.717009 174.627530 -61.085451 -501.974236
Spine -18.810561 -2.739080 3.360342
Head 45.342635 -16.135564 13.913543
LeftShoulder -7.930288 20.108847 16.190030
LeftArm 22.015968 18.179283 -74.194230
LeftForeArm 15.941738 0.000000 25.044866
LeftHand -13.131476 -0.000000 -9.534553
LeftHandThumb1 -26.253704 0.000000 33.147579
RightShoulder -39.723865 -49.567859 23.553925
RightArm 54.428714 -15.357497 50.143162
RightForeArm -10.631774 -0.000000 15.592579
RightHand -1.021765 -0.000000 5.089170
RightHandThumb1 -24.326973 -0.000000 -32.862282
LeftUpLeg -39.596792 24.734267 -5.023600
LeftLeg 14.189659 -0.000000 -0.000000
LeftFoot -13.590990 4.647679 -9.893954
LeftToeBase 15.568725 -0.000000 -0.000000
RightUpLeg -89.860697 -19.150056 22.526751
RightLeg 84.950342 -0.000000 -0.000000
RightFoot -10.333872 -2.406235 24.795941
RightToeBase -24.745132 -0.000000 0.000000
2747
root 10.619312 37.416572 3.705487 174.090429 -61.146193 -501.468811
Spine -18.799545 -2.728544 3.551724
Head 45.457494 -16.249028 13.959465
LeftShoulder -7.875543 20.076680 16.227250
LeftArm 22.016415 18.223759 -74.286795
LeftForeArm 15.803714 0.000000 25.034318
LeftHand -13.138861 -0.000000 -9.441409
LeftHandThumb1 -26.253704 0.000000 33.147579
RightShoulder -39.804956 -49.553393 23.686391
RightArm 54.481707 -15.257977 50.064946
RightForeArm -11.008922 -0.000000 15.584204
RightHand -1.133565 -0.000000 5.605978
RightHandThumb1 -24.326973 -0.000000 -32.862282
LeftUpLeg -39.485211 24.745048 -4.793636
LeftLeg 14.130750 -0.000000 -0.000000
LeftFoot -13.567747 4.624303 -9.879198
LeftToeBase 15.560976 -0.000000 -0.000000
RightUpLeg -89.343864 -19.335058 21.270172
RightLeg 84.557634 -0.000000 -0.000000
RightFoot -10.528732 -3.142867 24.461420
RightToeBase -24.743512 -0.000000 0.000000
2748
root 10.606162 37.432788 3.688173 173.568874 -61.180319 -500.940730
Spine -18.858104 -2.717233 3.730942
Head 45.616008 -16.411636 14.036743
LeftShoulder -7.863178 20.127469 16.276894
LeftArm 22.084292 18.305036 -74.348187
LeftForeArm 15.734247 -0.000000 25.011517
LeftHand -13.128691 -0.000000 -9.412039
LeftHandThumb1 -26.253704 0.000000 33.147579
RightShoulder -39.936824 -49.502049 23.868192
RightArm 54.558121 -15.199314 49.907124
RightForeArm -11.239146 -0.000000 15.564732
RightHand -1.386291 -0.000000 6.213734
RightHandThumb1 -24.326973 -0.000000 -32.862282
LeftUpLeg -39.381132 24.782405 -4.551862
LeftLeg 14.035479 -0.000000 -0.000000
LeftFoot -13.535619 4.557272 -9.896555
LeftToeBase 15.616159 -0.000000 -0.000000
RightUpLeg -88.771618 -19.451913 19.962590
RightLeg 84.177109 -0.000000 -0.000000
RightFoot -10.645194 -3.849011 24.195648
RightToeBase -24.736257 -0.000000 0.000000
2749
root 10.594771 37.447763 3.665588 172.743488 -61.270062 -500.263361
Spine -18.692528 -2.766211 3.955422
Head 45.699395 -16.593274 14.161460
LeftShoulder -7.788460 20.051281 16.364884
LeftArm 22.027578 18.406649 -74.449340
LeftForeArm 15.703002 -0.000000 25.072241
LeftHand -13.162570 0.000000 -9.388794
LeftHandThumb1 -26.253704 0.000000 33.147579
RightShoulder -40.002791 -49.441749 24.013741
RightArm 54.630292 -15.114738 49.797594
RightForeArm -11.438988 -0.000000 15.584462
RightHand -1.721900 -0.000000 6.887689
RightHandThumb1 -24.326973 -0.000000 -32.862282
LeftUpLeg -39.192995 24.900003 -4.259090
LeftLeg 14.050613 -0.000000 -0.000000
LeftFoot -13.527058 4.387192 -9.846441
LeftToeBase 15.699312 -0.000000 -0.000000
RightUpLeg -87.985782 -19.658879 18.627328
RightLeg 83.822734 -0.000000 -0.000000
RightFoot -10.605172 -4.580586 23.888856
RightToeBase -24.976620 -0.000000 0.000000
2750
root 10.579890 37.465412 3.641961 172.064687 -61.325208 -499.698277
Spine -18.598606 -2.734614 4.089466
Head 45.782026 -16.840885 14.333345
LeftShoulder -7.699370 20.050874 16.461169
LeftArm 22.093201 18.573484 -74.448911
LeftForeArm 15.644957 -0.000000 25.080944
LeftHand -13.119753 -0.000000 -9.467902
LeftHandThumb1 -26.253704 0.000000 33.147579
RightShoulder -40.143003 -49.385364 24.245477
RightArm 54.674256 -14.995968 49.744927
RightForeArm -11.627728 -0.000000 15.616812
RightHand -2.029089 -0.000000 7.683167
RightHandThumb1 -24.326973 -0.000000 -32.862282
LeftUpLeg -38.976968 25.024856 -4.009144
LeftLeg 13.951305 -0.000000 -0.000000
LeftFoot -13.491150 4.211744 -9.862883
LeftToeBase 15.881001 -0.000000 -0.000000
RightUpLeg -87.197533 -19.783326 17.227893
RightLeg 83.488451 -0.000000 -0.000000
RightFoot -10.321453 -5.426908 23.426828
RightToeBase -25.230455 -0.000000 0.000000
2751
root 10.560608 37.481939 3.613341 171.336563 -61.384592 -499.172477
Spine -18.415836 -2.741418 4.184284
Head 45.855126 -17.083752 14.521932
LeftShoulder -7.654096 20.045504 16.548503
LeftArm 22.183675 18.772101 -74.404747
LeftForeArm 15.558378 -0.000000 25.056930
LeftHand -13.057634 -0.000000 -9.584230
LeftHandThumb1 -26.253704 0.000000 33.147579
RightShoulder -40.225000 -49.328220 24.432815
RightArm 54.727090 -14.903085 49.719278
RightForeArm -11.804971 0.000000 15.619934
RightHand -2.428223 -0.000000 8.421714
RightHandThumb1 -24.326973 -0.000000 -32.862282
LeftUpLeg -38.648583 25.193204 -3.756224
LeftLeg 13.818684 -0.000000 -0.000000
LeftFoot -13.474125 3.994699 -9.899921
LeftToeBase 16.207929 -0.000000 -0.000000
RightUpLeg -86.291332 -19.897026 15.759936
RightLeg 83.190012 -0.000000 -0.000000
RightFoot -9.774933 -6.510441 22.558879
RightToeBase -25.824625 -0.000000 0.000000
2752
root 10.550399 37.503063 3.592199 170.872441 -61.395404 -498.694831
Spine -18.478654 -2.661842 4.257597
Head 45.899631 -17.369327 14.710470
LeftShoulder -7.563457 19.991256 16.674522
LeftArm 22.156004 19.011147 -74.376979
LeftForeArm 15.503792 -0.000000 25.126572
LeftHand -13.025452 0.000000 -9.756944
LeftHandThumb1 -26.253704 0.000000 33.147579
RightShoulder -40.348479 -49.252600 24.607146
RightArm 54.781979 -14.891529 49.643703
RightForeArm -11.856401 -0.000000 15.617424
RightHand -2.790195 -0.000000 9.243504
RightHandThumb1 -24.326973 -0.000000 -32.862282
LeftUpLeg -38.573660 25.366181 -3.620070
LeftLeg 13.675940 -0.000000 -0.000000
LeftFoot -13.364423 3.815329 -10.071430
LeftToeBase 16.108388 -0.000000 -0.000000
RightUpLeg -85.577798 -19.858979 14.355906
RightLeg 82.863294 -0.000000 -0.000000
RightFoot -8.991715 -7.807247 21.740135
RightToeBase -26.511745 -0.000000 0.000000
2753
root 10.536061 37.521588 3.566772 170.307063 -61.429574 -498.204408
Spine -18.441749 -2.627753 4.328671
Head 45.924744 -17.653089 14.882580
LeftShoulder -7.513055 19.958995 16.771872
LeftArm 22.201010 19.316818 -74.271467
LeftForeArm 15.398279 0.000000 25.185570
LeftHand -13.029343 0.000000 -9.924370
LeftHandThumb1 -26.253704 0.000000 33.147579
RightShoulder -40.399022 -49.160549 24.710764
RightArm 54.827783 -14.918447 49.564205
RightForeArm -11.928083 -0.000000 15.590513
RightHand -3.114232 -0.000000 10.150712
RightHandThumb1 -24.326973 -0.000000 -32.862282
LeftUpLeg -38.377335 25.495048 -3.419644
LeftLeg 13.518386 -0.000000 -0.000000
LeftFoot -13.305992 3.698483 -10.069221
LeftToeBase 16.236726 -0.000000 -0.000000
RightUpLeg -84.762404 -19.824304 12.952279
RightLeg 82.575776 -0.000000 -0.000000
RightFoot -8.250790 -9.451576 20.826612
RightToeBase -26.254431 -0.000000 0.000000
2754
root 10.521917 37.539216 3.542113 169.774924 -61.436031 -497.741188
Spine -18.415732 -2.571990 4.389630
Head 45.930766 -17.921470 15.045354
LeftShoulder -7.463205 19.898058 16.867235
LeftArm 22.188640 19.587228 -74.193927
LeftForeArm 15.443096 -0.000000 25.269588
LeftHand -12.980288 0.000000 -10.126463
LeftHandThumb1 -26.253704 0.000000 33.147579
RightShoulder -40.436794 -49.076389 24.781334
RightArm 54.920581 -14.982321 49.471737
RightForeArm -12.081607 -0.000000 15.504173
RightHand -3.424369 -0.000000 11.094704
RightHandThumb1 -24.326973 -0.000000 -32.862282
LeftUpLeg -38.174817 25.637985 -3.226483
LeftLeg 13.337032 -0.000000 -0.000000
LeftFoot -13.258831 3.598164 -9.988079
LeftToeBase 16.562427 -0.000000 -0.000000
RightUpLeg -83.945773 -19.737829 11.591361
RightLeg 82.282426 -0.000000 -0.000000
RightFoot -7.467465 -11.387212 19.592809
RightToeBase -25.732400 -0.000000 0.000000
2755
root 10.506858 37.556633 3.516762 169.248339 -61.441672 -497.268702
Spine -18.411332 -2.532134 4.465072
Head 45.929405 -18.161893 15.187591
LeftShoulder -7.465314 19.894296 16.915821
LeftArm 22.257032 19.901794 -74.027454
LeftForeArm 15.472314 -0.000000 25.355473
LeftHand -12.928079 -0.000000 -10.365216
LeftHandThumb1 -26.253704 0.000000 33.147579
RightShoulder -40.415322 -48.997754 24.793521
RightArm 55.007720 -15.094911 49.334585
RightForeArm -12.282895 -0.000000 15.449972
RightHand -3.859843 -0.000000 12.222440
RightHandThumb1 -24.326973 -0.000000 -32.862282
LeftUpLeg -37.980000 25.743510 -2.998968
LeftLeg 13.173842 -0.000000 -0.000000
LeftFoot -13.239157 3.388506 -10.249549
LeftToeBase 17.071985 -0.000000 -0.000000
RightUpLeg -83.081991 -19.607645 10.206068
RightLeg 81.971295 -0.000000 -0.000000
RightFoot -6.645186 -13.284218 18.430200
RightToeBase -25.266522 -0.000000 0.000000
2756
root 10.492567 37.571937 3.490233 168.653141 -61.495177 -496.763557
Spine -18.349365 -2.535413 4.536099
Head 45.883807 -18.417260 15.313361
LeftShoulder -7.431284 19.849401 16.961540
LeftArm 22.265018 20.172617 -73.880718
LeftForeArm 15.638684 -0.000000 25.469140
LeftHand -12.819078 -0.000000 -10.553079
LeftHandThumb1 -26.253704 0.000000 33.147579
RightShoulder -40.377720 -48.901393 24.788413
RightArm 55.111939 -15.257415 49.139923
RightForeArm -12.518300 -0.000000 15.401330
RightHand -4.328908 -0.000000 13.353815
RightHandThumb1 -24.326973 -0.000000 -32.862282
LeftUpLeg -37.749313 25.769721 -2.718248
LeftLeg 13.047900 -0.000000 -0.000000
LeftFoot -13.241740 3.207799 -10.415936
LeftToeBase 17.613509 -0.000000 -0.000000
RightUpLeg -82.154377 -19.498349 8.793843
RightLeg 81.665297 -0.000000 -0.000000
RightFoot -5.715003 -15.099148 17.421859
RightToeBase -24.653524 -0.000000 0.000000
